<?xml version="1.0" encoding="UTF-8"?>
<svg xmlns="http://www.w3.org/2000/svg" xmlns:xlink="http://www.w3.org/1999/xlink" width="412px" height="278px" viewBox="0 0 411 278" version="1.1">
<g id="surface1">
<path style=" stroke:none;fill-rule:nonzero;fill:rgb(94.901961%,94.901961%,94.901961%);fill-opacity:1;" d="M 28.128906 209.550781 C 26.183594 209.550781 24.234375 209.632812 22.328125 209.792969 L 22.050781 209.820312 C 9.425781 210.941406 0.1875 217.4375 0.5625 224.941406 L 0.636719 226.296875 C 0.691406 227.152344 0.742188 228.074219 0.78125 229.097656 C 0.808594 229.601562 1.492188 229.988281 2.34375 229.988281 L 312.996094 229.988281 C 334.902344 229.855469 356.722656 229.683594 377.859375 229.488281 C 381.820312 229.496094 385.78125 229.292969 389.722656 228.871094 C 395.597656 228.171875 399.671875 226.792969 402.1875 224.644531 C 405.3125 221.984375 405.410156 218.628906 405.21875 214.84375 C 404.839844 207.191406 404.457031 199.15625 404.074219 191.148438 C 403.738281 184.089844 403.402344 177.046875 403.066406 170.304688 C 402.859375 166.304688 402.398438 162.773438 398.851562 160.074219 C 395 157.15625 387.984375 155.675781 377.992188 155.675781 C 377.871094 155.675781 377.75 155.675781 377.628906 155.675781 C 346.3125 155.789062 315.285156 166.597656 300.417969 182.566406 C 298.707031 184.40625 297.113281 186.371094 295.566406 188.28125 C 293.289062 191.089844 290.933594 194 288.121094 196.601562 C 286.597656 198.03125 284.953125 199.316406 283.199219 200.449219 C 283.078125 200.535156 282.941406 200.625 282.792969 200.710938 C 282.460938 200.929688 282.109375 201.140625 281.769531 201.328125 C 279.777344 202.484375 277.671875 203.445312 275.492188 204.191406 L 275.273438 204.265625 C 275.109375 204.320312 274.929688 204.382812 274.753906 204.4375 C 273.492188 204.84375 272.1875 205.195312 270.878906 205.476562 C 265.210938 206.730469 258.765625 207.03125 251.722656 206.371094 C 245.257812 205.746094 238.875 204.4375 232.679688 202.476562 C 226.164062 200.40625 220.0625 197.828125 214.15625 195.339844 C 211.566406 194.238281 208.882812 193.105469 206.207031 192.039062 C 205.703125 191.832031 205.210938 191.632812 204.707031 191.4375 C 201.433594 190.160156 198.46875 189.101562 195.640625 188.207031 C 188.632812 185.988281 181.375 184.636719 174.039062 184.191406 C 166.25 183.765625 159.386719 184.570312 153.644531 186.585938 C 152.0625 187.136719 150.519531 187.804688 149.03125 188.578125 C 142.226562 192.128906 138.035156 197.359375 133.980469 202.417969 C 128.9375 208.707031 123.722656 215.21875 113.417969 218.59375 C 101.535156 222.492188 84.1875 220.871094 71.910156 218.054688 C 68.054688 217.171875 64.203125 216.148438 60.472656 215.167969 C 58.96875 214.769531 57.460938 214.371094 55.953125 213.980469 C 52.992188 213.214844 50.566406 212.625 48.324219 212.132812 L 47.613281 211.96875 C 47.222656 211.882812 46.828125 211.800781 46.425781 211.714844 C 43.761719 211.152344 41.277344 210.714844 38.835938 210.367188 L 38.257812 210.28125 C 37.097656 210.128906 36.015625 210.003906 34.953125 209.894531 L 34.527344 209.851562 C 32.445312 209.652344 30.292969 209.550781 28.128906 209.550781 Z M 28.128906 209.550781 "/>
<path style=" stroke:none;fill-rule:nonzero;fill:rgb(90.196078%,90.196078%,90.196078%);fill-opacity:1;" d="M 349.363281 217.921875 C 358.101562 210.015625 371.105469 206.042969 382.011719 210.476562 C 370.824219 216.710938 362.195312 226.714844 357.644531 238.714844 C 355.914062 243.351562 354.460938 248.6875 350.191406 251.171875 C 347.535156 252.714844 344.230469 252.792969 341.25 252.046875 C 338.273438 251.300781 335.539062 249.804688 332.84375 248.328125 L 332.082031 248.304688 C 335.519531 237.015625 340.621094 225.828125 349.363281 217.921875 Z M 349.363281 217.921875 "/>
<path style=" stroke:none;fill-rule:nonzero;fill:rgb(100%,100%,100%);fill-opacity:1;" d="M 381.949219 210.714844 C 372.289062 211.964844 363.269531 216.246094 356.171875 222.933594 C 354.617188 224.347656 353.292969 225.996094 352.253906 227.824219 C 351.292969 229.632812 350.839844 231.675781 350.929688 233.71875 C 350.976562 235.632812 351.246094 237.582031 350.828125 239.476562 C 350.371094 241.425781 349.097656 243.085938 347.34375 244.039062 C 345.207031 245.269531 342.757812 245.660156 340.355469 245.957031 C 337.683594 246.28125 334.902344 246.582031 332.589844 248.089844 C 332.304688 248.265625 332.042969 247.820312 332.320312 247.636719 C 336.347656 245.023438 341.441406 245.972656 345.765625 244.226562 C 347.789062 243.414062 349.570312 241.980469 350.203125 239.820312 C 350.761719 237.929688 350.484375 235.914062 350.417969 233.980469 C 350.300781 231.980469 350.667969 229.984375 351.496094 228.164062 C 352.445312 226.292969 353.703125 224.59375 355.210938 223.144531 C 358.570312 219.824219 362.421875 217.054688 366.640625 214.933594 C 371.4375 212.492188 376.613281 210.890625 381.945312 210.195312 C 382.273438 210.15625 382.28125 210.671875 381.949219 210.714844 Z M 381.949219 210.714844 "/>
<path style=" stroke:none;fill-rule:nonzero;fill:rgb(100%,100%,100%);fill-opacity:1;" d="M 358.332031 220.644531 C 356.351562 217.859375 356.679688 214.050781 359.09375 211.644531 C 359.335938 211.410156 359.710938 211.765625 359.472656 212.003906 C 357.210938 214.242188 356.921875 217.796875 358.773438 220.375 C 358.96875 220.648438 358.527344 220.914062 358.332031 220.644531 Z M 358.332031 220.644531 "/>
<path style=" stroke:none;fill-rule:nonzero;fill:rgb(100%,100%,100%);fill-opacity:1;" d="M 350.777344 232.753906 C 354.097656 233.347656 357.515625 232.65625 360.355469 230.832031 C 360.636719 230.648438 360.902344 231.097656 360.617188 231.277344 C 357.664062 233.171875 354.105469 233.878906 350.652344 233.257812 C 350.320312 233.199219 350.453125 232.695312 350.777344 232.753906 Z M 350.777344 232.753906 "/>
<path style=" stroke:none;fill-rule:nonzero;fill:rgb(100%,100%,100%);fill-opacity:1;" d="M 371.476562 213.179688 C 372.007812 214.394531 373.117188 215.261719 374.421875 215.484375 C 374.75 215.542969 374.621094 216.046875 374.296875 215.988281 C 372.855469 215.738281 371.632812 214.785156 371.03125 213.449219 C 370.964844 213.320312 371.003906 213.164062 371.125 213.089844 C 371.246094 213.015625 371.402344 213.054688 371.476562 213.179688 Z M 371.476562 213.179688 "/>
<path style=" stroke:none;fill-rule:nonzero;fill:rgb(90.196078%,90.196078%,90.196078%);fill-opacity:1;" d="M 394.019531 248.597656 C 393.8125 248.566406 393.609375 248.539062 393.394531 248.515625 C 390.613281 248.140625 387.808594 248.003906 385 248.089844 C 384.78125 248.089844 384.566406 248.09375 384.34375 248.105469 C 377.589844 248.382812 370.941406 249.921875 364.746094 252.632812 C 362.28125 253.714844 359.898438 254.988281 357.625 256.429688 C 354.484375 258.421875 351.242188 260.835938 347.726562 261.65625 C 347.363281 261.742188 346.992188 261.804688 346.621094 261.851562 L 332.121094 249.25 C 332.097656 249.207031 332.074219 249.160156 332.058594 249.113281 L 331.457031 248.636719 C 331.566406 248.554688 331.683594 248.472656 331.796875 248.386719 C 331.863281 248.339844 331.933594 248.296875 331.996094 248.25 C 332.042969 248.21875 332.085938 248.183594 332.125 248.152344 C 332.136719 248.144531 332.152344 248.136719 332.164062 248.128906 C 332.203125 248.09375 332.242188 248.070312 332.277344 248.046875 C 332.933594 247.578125 333.597656 247.113281 334.265625 246.652344 C 334.265625 246.648438 334.265625 246.648438 334.273438 246.648438 C 339.328125 243.09375 344.777344 240.152344 350.523438 237.886719 C 350.691406 237.820312 350.867188 237.75 351.046875 237.691406 C 353.632812 236.726562 356.292969 235.972656 359 235.445312 C 360.484375 235.15625 361.980469 234.949219 363.488281 234.8125 C 367.375 234.480469 371.292969 234.757812 375.09375 235.644531 C 382.671875 237.402344 389.605469 241.582031 393.714844 248.09375 C 393.816406 248.261719 393.917969 248.429688 394.019531 248.597656 Z M 394.019531 248.597656 "/>
<path style=" stroke:none;fill-rule:nonzero;fill:rgb(100%,100%,100%);fill-opacity:1;" d="M 393.832031 248.753906 C 385.363281 243.917969 375.597656 241.882812 365.917969 242.933594 C 363.824219 243.125 361.78125 243.640625 359.851562 244.46875 C 358.003906 245.339844 356.414062 246.6875 355.261719 248.378906 C 354.148438 249.929688 353.195312 251.65625 351.726562 252.910156 C 350.1875 254.191406 348.179688 254.753906 346.203125 254.449219 C 343.761719 254.144531 341.574219 252.976562 339.472656 251.753906 C 337.144531 250.402344 334.746094 248.960938 331.992188 248.765625 C 331.664062 248.742188 331.714844 248.222656 332.050781 248.25 C 336.832031 248.59375 340.328125 252.429688 344.832031 253.648438 C 346.933594 254.21875 349.21875 254.152344 351.019531 252.8125 C 352.601562 251.632812 353.585938 249.859375 354.695312 248.277344 C 355.796875 246.613281 357.289062 245.238281 359.046875 244.289062 C 360.925781 243.363281 362.949219 242.761719 365.027344 242.519531 C 369.695312 241.898438 374.4375 242.015625 379.074219 242.871094 C 384.367188 243.820312 389.464844 245.664062 394.136719 248.335938 C 394.429688 248.5 394.117188 248.917969 393.832031 248.753906 Z M 393.832031 248.753906 "/>
<path style=" stroke:none;fill-rule:nonzero;fill:rgb(100%,100%,100%);fill-opacity:1;" d="M 369.015625 242.410156 C 369.105469 238.992188 371.652344 236.148438 375.023438 235.6875 C 375.355469 235.644531 375.441406 236.15625 375.105469 236.199219 C 371.964844 236.621094 369.597656 239.285156 369.53125 242.464844 C 369.523438 242.796875 369.007812 242.742188 369.015625 242.410156 Z M 369.015625 242.410156 "/>
<path style=" stroke:none;fill-rule:nonzero;fill:rgb(100%,100%,100%);fill-opacity:1;" d="M 355.71875 247.515625 C 358.015625 249.992188 361.15625 251.511719 364.519531 251.765625 C 364.855469 251.789062 364.792969 252.308594 364.464844 252.28125 C 360.964844 252.011719 357.699219 250.425781 355.316406 247.839844 C 355.085938 247.59375 355.488281 247.269531 355.71875 247.515625 Z M 355.71875 247.515625 "/>
<path style=" stroke:none;fill-rule:nonzero;fill:rgb(100%,100%,100%);fill-opacity:1;" d="M 383.988281 244.390625 C 383.679688 245.6875 384.046875 247.046875 384.953125 248.011719 C 385.1875 248.253906 384.777344 248.578125 384.546875 248.339844 C 383.550781 247.261719 383.148438 245.765625 383.472656 244.335938 C 383.496094 244.195312 383.621094 244.09375 383.757812 244.105469 C 383.902344 244.125 384.003906 244.25 383.988281 244.390625 Z M 383.988281 244.390625 "/>
<path style=" stroke:none;fill-rule:nonzero;fill:rgb(90.196078%,90.196078%,90.196078%);fill-opacity:1;" d="M 120.535156 225.785156 C 127.695312 214.890625 140.5 207.011719 153.390625 208.703125 C 143.15625 218.496094 136.699219 231.601562 135.164062 245.714844 C 134.59375 251.152344 134.519531 257.265625 130.640625 261.117188 C 128.230469 263.503906 124.714844 264.507812 121.320312 264.546875 C 117.929688 264.578125 114.589844 263.742188 111.300781 262.914062 L 110.472656 263.109375 C 111.023438 250.070312 113.378906 236.683594 120.535156 225.785156 Z M 120.535156 225.785156 "/>
<path style=" stroke:none;fill-rule:nonzero;fill:rgb(100%,100%,100%);fill-opacity:1;" d="M 153.390625 208.976562 C 143.410156 213.011719 134.945312 220.105469 129.207031 229.246094 C 127.9375 231.1875 126.980469 233.320312 126.371094 235.566406 C 125.851562 237.773438 125.925781 240.074219 126.59375 242.242188 C 127.175781 244.273438 128.003906 246.285156 128.082031 248.421875 C 128.128906 250.640625 127.230469 252.773438 125.617188 254.277344 C 123.675781 256.195312 121.164062 257.289062 118.675781 258.28125 C 115.90625 259.378906 113.015625 260.472656 110.957031 262.726562 C 110.707031 263 110.300781 262.597656 110.550781 262.328125 C 114.128906 258.402344 119.835938 257.996094 123.984375 254.921875 C 125.917969 253.488281 127.429688 251.460938 127.507812 248.972656 C 127.574219 246.789062 126.722656 244.714844 126.121094 242.664062 C 125.4375 240.5625 125.28125 238.320312 125.660156 236.144531 C 126.15625 233.875 127.027344 231.707031 128.246094 229.730469 C 130.910156 225.246094 134.269531 221.207031 138.1875 217.765625 C 142.640625 213.8125 147.734375 210.65625 153.246094 208.421875 C 153.582031 208.289062 153.734375 208.839844 153.390625 208.976562 Z M 153.390625 208.976562 "/>
<path style=" stroke:none;fill-rule:nonzero;fill:rgb(100%,100%,100%);fill-opacity:1;" d="M 130.882812 226.191406 C 128 223.769531 127.289062 219.601562 129.207031 216.351562 C 129.394531 216.03125 129.898438 216.308594 129.707031 216.632812 C 127.917969 219.65625 128.585938 223.539062 131.289062 225.785156 C 131.570312 226.019531 131.167969 226.425781 130.882812 226.191406 Z M 130.882812 226.191406 "/>
<path style=" stroke:none;fill-rule:nonzero;fill:rgb(100%,100%,100%);fill-opacity:1;" d="M 126.164062 241.25 C 129.878906 240.957031 133.34375 239.265625 135.871094 236.523438 C 136.121094 236.246094 136.53125 236.652344 136.277344 236.925781 C 133.644531 239.78125 130.035156 241.53125 126.167969 241.828125 C 125.800781 241.855469 125.800781 241.28125 126.164062 241.25 Z M 126.164062 241.25 "/>
<path style=" stroke:none;fill-rule:nonzero;fill:rgb(100%,100%,100%);fill-opacity:1;" d="M 142.875 214.539062 C 143.78125 215.6875 145.203125 216.308594 146.660156 216.183594 C 147.03125 216.148438 147.03125 216.726562 146.667969 216.757812 C 145.054688 216.886719 143.484375 216.210938 142.46875 214.945312 C 142.367188 214.832031 142.367188 214.65625 142.46875 214.542969 C 142.578125 214.429688 142.761719 214.429688 142.875 214.539062 Z M 142.875 214.539062 "/>
<path style=" stroke:none;fill-rule:nonzero;fill:rgb(90.196078%,90.196078%,90.196078%);fill-opacity:1;" d="M 176.804688 246.125 C 176.574219 246.152344 176.34375 246.175781 176.117188 246.207031 C 173.035156 246.589844 169.992188 247.21875 167.015625 248.09375 C 166.785156 248.160156 166.550781 248.226562 166.320312 248.296875 C 159.171875 250.480469 152.488281 253.984375 146.613281 258.613281 C 144.273438 260.460938 142.082031 262.480469 140.054688 264.660156 C 137.246094 267.671875 134.441406 271.160156 130.914062 273.007812 C 130.546875 273.207031 130.167969 273.382812 129.78125 273.53125 L 110.777344 264.101562 C 110.746094 264.0625 110.710938 264.023438 110.675781 263.976562 L 109.902344 263.636719 C 109.996094 263.511719 110.101562 263.390625 110.195312 263.273438 C 110.257812 263.207031 110.3125 263.136719 110.371094 263.066406 C 110.410156 263.023438 110.449219 262.976562 110.476562 262.929688 C 110.496094 262.917969 110.507812 262.902344 110.515625 262.886719 C 110.550781 262.84375 110.585938 262.808594 110.613281 262.769531 C 111.191406 262.089844 111.765625 261.40625 112.351562 260.726562 C 112.355469 260.71875 112.355469 260.71875 112.359375 260.71875 C 116.839844 255.558594 121.789062 250.730469 127.308594 246.8125 C 127.472656 246.695312 127.644531 246.570312 127.816406 246.457031 C 130.316406 244.707031 132.953125 243.160156 135.699219 241.832031 C 137.210938 241.117188 138.75 240.472656 140.328125 239.910156 C 144.386719 238.464844 148.65625 237.667969 152.972656 237.550781 C 161.5625 237.320312 170.136719 239.851562 176.335938 245.671875 C 176.492188 245.820312 176.648438 245.96875 176.804688 246.125 Z M 176.804688 246.125 "/>
<path style=" stroke:none;fill-rule:nonzero;fill:rgb(100%,100%,100%);fill-opacity:1;" d="M 176.640625 246.34375 C 166.25 243.535156 155.238281 244.085938 145.171875 247.910156 C 142.992188 248.695312 140.945312 249.820312 139.117188 251.246094 C 137.375 252.691406 136.050781 254.578125 135.289062 256.710938 C 134.53125 258.683594 133.988281 260.789062 132.769531 262.546875 C 131.476562 264.34375 129.484375 265.503906 127.285156 265.734375 C 124.589844 266.089844 121.925781 265.445312 119.34375 264.730469 C 116.472656 263.933594 113.507812 263.0625 110.511719 263.621094 C 110.152344 263.6875 110.066406 263.117188 110.429688 263.054688 C 115.636719 262.085938 120.441406 265.210938 125.59375 265.261719 C 128.003906 265.28125 130.429688 264.578125 131.984375 262.632812 C 133.34375 260.9375 133.910156 258.765625 134.65625 256.757812 C 135.371094 254.667969 136.589844 252.789062 138.203125 251.277344 C 139.957031 249.765625 141.953125 248.5625 144.109375 247.71875 C 148.933594 245.753906 154.035156 244.554688 159.226562 244.171875 C 165.15625 243.707031 171.117188 244.257812 176.859375 245.808594 C 177.210938 245.910156 176.996094 246.4375 176.640625 246.34375 Z M 176.640625 246.34375 "/>
<path style=" stroke:none;fill-rule:nonzero;fill:rgb(100%,100%,100%);fill-opacity:1;" d="M 148.339844 246.484375 C 147.496094 242.808594 149.425781 239.054688 152.910156 237.617188 C 153.253906 237.476562 153.484375 238.003906 153.140625 238.144531 C 149.894531 239.476562 148.097656 242.980469 148.910156 246.402344 C 148.996094 246.765625 148.429688 246.847656 148.339844 246.484375 Z M 148.339844 246.484375 "/>
<path style=" stroke:none;fill-rule:nonzero;fill:rgb(100%,100%,100%);fill-opacity:1;" d="M 135.535156 255.660156 C 138.683594 257.667969 142.460938 258.414062 146.128906 257.75 C 146.492188 257.683594 146.574219 258.25 146.210938 258.320312 C 142.394531 259 138.460938 258.21875 135.199219 256.121094 C 134.886719 255.921875 135.226562 255.460938 135.535156 255.660156 Z M 135.535156 255.660156 "/>
<path style=" stroke:none;fill-rule:nonzero;fill:rgb(100%,100%,100%);fill-opacity:1;" d="M 164.90625 244.425781 C 164.941406 245.894531 165.707031 247.25 166.945312 248.027344 C 167.257812 248.222656 166.914062 248.683594 166.605469 248.488281 C 165.238281 247.625 164.390625 246.128906 164.34375 244.507812 C 164.320312 244.359375 164.429688 244.210938 164.582031 244.183594 C 164.738281 244.164062 164.886719 244.269531 164.90625 244.425781 Z M 164.90625 244.425781 "/>
<path style=" stroke:none;fill-rule:nonzero;fill:rgb(100%,71.372549%,71.372549%);fill-opacity:1;" d="M 171.476562 144.097656 C 172.441406 143.140625 172.925781 141.800781 172.808594 140.449219 C 172.695312 139.089844 171.988281 137.859375 170.875 137.074219 L 178.359375 100.746094 L 170.285156 103.296875 L 164.269531 138.449219 C 163.058594 140.449219 163.53125 143.046875 165.371094 144.492188 C 167.207031 145.933594 169.832031 145.765625 171.476562 144.097656 Z M 171.476562 144.097656 "/>
<path style=" stroke:none;fill-rule:nonzero;fill:rgb(90.196078%,90.196078%,90.196078%);fill-opacity:1;" d="M 188.769531 46.988281 L 183.769531 43.199219 C 183.769531 43.199219 179.359375 42.886719 178.574219 50.871094 C 177.800781 58.847656 172.910156 89.480469 172.910156 89.480469 L 165.253906 125.039062 L 175.847656 127.371094 L 184.039062 89 L 192.242188 62.523438 Z M 188.769531 46.988281 "/>
<path style=" stroke:none;fill-rule:nonzero;fill:rgb(24.705882%,23.921569%,33.72549%);fill-opacity:1;" d="M 184.957031 112.78125 L 160.980469 94.066406 C 160.199219 93.460938 160.0625 92.335938 160.667969 91.554688 L 176.984375 70.496094 C 177.585938 69.710938 178.710938 69.574219 179.488281 70.175781 L 203.46875 88.890625 C 204.246094 89.5 204.386719 90.625 203.78125 91.40625 L 187.464844 112.464844 C 186.859375 113.246094 185.738281 113.386719 184.957031 112.78125 Z M 184.957031 112.78125 "/>
<path style=" stroke:none;fill-rule:nonzero;fill:rgb(100%,100%,100%);fill-opacity:1;" d="M 184.828125 110.84375 L 162.882812 93.722656 C 162.191406 93.179688 162.066406 92.179688 162.605469 91.484375 L 177.394531 72.394531 C 177.933594 71.703125 178.925781 71.578125 179.621094 72.113281 L 201.570312 89.238281 C 202.257812 89.78125 202.378906 90.78125 201.847656 91.46875 L 187.054688 110.5625 C 186.515625 111.257812 185.519531 111.382812 184.828125 110.84375 Z M 184.828125 110.84375 "/>
<path style=" stroke:none;fill-rule:nonzero;fill:rgb(89.411765%,89.411765%,89.411765%);fill-opacity:1;" d="M 165.757812 93.234375 C 165.589844 93.097656 165.554688 92.847656 165.6875 92.675781 L 173.152344 83.042969 C 173.285156 82.871094 173.535156 82.839844 173.707031 82.972656 C 173.882812 83.109375 173.910156 83.359375 173.777344 83.535156 L 166.3125 93.164062 C 166.179688 93.339844 165.933594 93.367188 165.757812 93.234375 Z M 165.757812 93.234375 "/>
<path style=" stroke:none;fill-rule:nonzero;fill:rgb(89.411765%,89.411765%,89.411765%);fill-opacity:1;" d="M 166.996094 94.199219 C 166.824219 94.0625 166.789062 93.8125 166.925781 93.636719 L 174.386719 84.007812 C 174.523438 83.835938 174.769531 83.804688 174.945312 83.9375 C 175.117188 84.074219 175.148438 84.324219 175.011719 84.496094 L 167.554688 94.128906 C 167.414062 94.304688 167.167969 94.332031 166.996094 94.199219 Z M 166.996094 94.199219 "/>
<path style=" stroke:none;fill-rule:nonzero;fill:rgb(89.411765%,89.411765%,89.411765%);fill-opacity:1;" d="M 172.457031 89.707031 C 172.289062 89.574219 172.253906 89.320312 172.394531 89.148438 L 175.625 84.972656 C 175.710938 84.863281 175.851562 84.804688 175.992188 84.824219 C 176.132812 84.84375 176.25 84.9375 176.304688 85.066406 C 176.359375 85.199219 176.335938 85.351562 176.25 85.464844 L 173.015625 89.636719 C 172.878906 89.8125 172.632812 89.839844 172.457031 89.707031 Z M 172.457031 89.707031 "/>
<path style=" stroke:none;fill-rule:nonzero;fill:rgb(89.411765%,89.411765%,89.411765%);fill-opacity:1;" d="M 174.128906 97.898438 C 173.953125 97.765625 173.925781 97.511719 174.058594 97.339844 L 185.839844 82.136719 C 185.96875 81.960938 186.222656 81.933594 186.394531 82.066406 C 186.570312 82.199219 186.597656 82.453125 186.464844 82.625 L 174.683594 97.828125 C 174.550781 98.003906 174.300781 98.035156 174.128906 97.898438 Z M 174.128906 97.898438 "/>
<path style=" stroke:none;fill-rule:nonzero;fill:rgb(89.411765%,89.411765%,89.411765%);fill-opacity:1;" d="M 175.363281 98.863281 C 175.191406 98.730469 175.160156 98.480469 175.296875 98.308594 L 187.074219 83.101562 C 187.207031 82.925781 187.457031 82.894531 187.632812 83.03125 C 187.804688 83.164062 187.835938 83.417969 187.699219 83.589844 L 175.921875 98.792969 C 175.785156 98.96875 175.539062 99 175.363281 98.863281 Z M 175.363281 98.863281 "/>
<path style=" stroke:none;fill-rule:nonzero;fill:rgb(89.411765%,89.411765%,89.411765%);fill-opacity:1;" d="M 178.171875 101.054688 C 178 100.917969 177.96875 100.671875 178.101562 100.496094 L 189.882812 85.289062 C 190.015625 85.121094 190.265625 85.085938 190.4375 85.222656 C 190.609375 85.359375 190.644531 85.605469 190.507812 85.78125 L 178.726562 100.984375 C 178.59375 101.15625 178.347656 101.1875 178.171875 101.054688 Z M 178.171875 101.054688 "/>
<path style=" stroke:none;fill-rule:nonzero;fill:rgb(89.411765%,89.411765%,89.411765%);fill-opacity:1;" d="M 179.410156 102.023438 C 179.234375 101.882812 179.203125 101.636719 179.339844 101.460938 L 191.121094 86.257812 C 191.25 86.085938 191.503906 86.054688 191.675781 86.1875 C 191.847656 86.324219 191.878906 86.570312 191.746094 86.75 L 179.964844 101.953125 C 179.828125 102.121094 179.582031 102.15625 179.410156 102.023438 Z M 179.410156 102.023438 "/>
<path style=" stroke:none;fill-rule:nonzero;fill:rgb(89.411765%,89.411765%,89.411765%);fill-opacity:1;" d="M 182.214844 104.210938 C 182.042969 104.078125 182.011719 103.824219 182.148438 103.652344 L 193.925781 88.449219 C 194.058594 88.273438 194.308594 88.242188 194.484375 88.378906 C 194.652344 88.511719 194.6875 88.765625 194.550781 88.9375 L 182.773438 104.140625 C 182.636719 104.316406 182.390625 104.34375 182.214844 104.210938 Z M 182.214844 104.210938 "/>
<path style=" stroke:none;fill-rule:nonzero;fill:rgb(89.411765%,89.411765%,89.411765%);fill-opacity:1;" d="M 183.453125 105.175781 C 183.28125 105.039062 183.25 104.792969 183.382812 104.621094 L 195.164062 89.410156 C 195.292969 89.242188 195.546875 89.210938 195.71875 89.34375 C 195.894531 89.476562 195.921875 89.730469 195.789062 89.902344 L 184.007812 105.105469 C 183.875 105.28125 183.625 105.308594 183.453125 105.175781 Z M 183.453125 105.175781 "/>
<path style=" stroke:none;fill-rule:nonzero;fill:rgb(100%,100%,100%);fill-opacity:1;" d="M 163.925781 122.667969 C 163.925781 122.757812 163.851562 122.832031 163.761719 122.832031 C 163.671875 122.832031 163.601562 122.757812 163.601562 122.667969 C 163.601562 122.582031 163.671875 122.503906 163.761719 122.503906 C 163.851562 122.503906 163.925781 122.582031 163.925781 122.667969 Z M 163.925781 122.667969 "/>
<path style=" stroke:none;fill-rule:nonzero;fill:rgb(18.431373%,18.039216%,25.490196%);fill-opacity:1;" d="M 187.484375 10.273438 C 186.910156 13.355469 185.96875 16.367188 184.683594 19.226562 C 177.328125 34.851562 198.285156 29.757812 205.773438 29.757812 C 213.960938 29.757812 221.796875 34.082031 220.601562 14.878906 C 220.089844 6.675781 213.960938 0 205.773438 0 C 198.777344 0 188.945312 3.117188 187.484375 10.273438 Z M 187.484375 10.273438 "/>
<path style=" stroke:none;fill-rule:nonzero;fill:rgb(100%,71.372549%,71.372549%);fill-opacity:1;" d="M 213.40625 239.402344 L 206.429688 239.402344 L 203.109375 212.394531 L 213.40625 212.394531 Z M 213.40625 239.402344 "/>
<path style=" stroke:none;fill-rule:nonzero;fill:rgb(18.431373%,18.039216%,25.490196%);fill-opacity:1;" d="M 217.089844 251.535156 L 212.085938 251.535156 L 211.191406 246.792969 L 208.90625 251.535156 L 195.636719 251.535156 C 194.332031 251.535156 193.175781 250.683594 192.785156 249.429688 C 192.398438 248.179688 192.863281 246.820312 193.941406 246.078125 L 204.535156 238.734375 L 204.535156 233.9375 L 215.683594 234.605469 Z M 217.089844 251.535156 "/>
<path style=" stroke:none;fill-rule:nonzero;fill:rgb(100%,71.372549%,71.372549%);fill-opacity:1;" d="M 254.851562 230.566406 L 249.253906 234.746094 L 230.535156 215.0625 L 238.796875 208.894531 Z M 254.851562 230.566406 "/>
<path style=" stroke:none;fill-rule:nonzero;fill:rgb(18.431373%,18.039216%,25.490196%);fill-opacity:1;" d="M 265.023438 238.097656 L 261.003906 241.089844 L 257.472656 237.820312 L 258.453125 243 L 247.804688 250.941406 C 246.761719 251.726562 245.328125 251.734375 244.269531 250.960938 C 243.214844 250.191406 242.78125 248.820312 243.203125 247.582031 L 247.335938 235.339844 L 244.488281 231.496094 L 253.828125 225.355469 Z M 265.023438 238.097656 "/>
<path style=" stroke:none;fill-rule:nonzero;fill:rgb(100%,71.372549%,71.372549%);fill-opacity:1;" d="M 190.554688 115.117188 L 223.671875 109.941406 L 217.089844 90.054688 L 190.554688 90.054688 Z M 190.554688 115.117188 "/>
<path style=" stroke:none;fill-rule:nonzero;fill:rgb(18.431373%,18.039216%,25.490196%);fill-opacity:1;" d="M 221.527344 100.070312 C 221.527344 100.070312 234.765625 111.546875 228.65625 144.265625 L 221.203125 176.320312 L 241.519531 211.714844 L 231.1875 217.371094 L 206.15625 182.453125 L 194.695312 155.488281 L 188.636719 108.222656 Z M 221.527344 100.070312 "/>
<path style=" stroke:none;fill-rule:nonzero;fill:rgb(18.431373%,18.039216%,25.490196%);fill-opacity:1;" d="M 201.011719 163.171875 L 200.214844 175.542969 L 202.546875 212.1875 L 214.117188 216.183594 L 216.308594 178.640625 Z M 201.011719 163.171875 "/>
<path style=" stroke:none;fill-rule:nonzero;fill:rgb(90.196078%,90.196078%,90.196078%);fill-opacity:1;" d="M 197.457031 33.875 L 210.253906 34.375 L 215.359375 42.878906 L 226.996094 45.15625 L 220.050781 80.4375 L 221.328125 100.519531 L 209.738281 100.445312 C 201.382812 100.398438 193.308594 103.441406 187.050781 108.996094 L 187.402344 82.929688 L 182.410156 63.476562 L 183.535156 43.066406 L 192.898438 41.894531 Z M 197.457031 33.875 "/>
<path style=" stroke:none;fill-rule:nonzero;fill:rgb(100%,71.372549%,71.372549%);fill-opacity:1;" d="M 216.59375 17.667969 C 216.59375 24.34375 211.203125 29.753906 204.546875 29.753906 C 197.894531 29.753906 192.5 24.34375 192.5 17.667969 C 192.5 10.984375 197.894531 5.574219 204.546875 5.574219 C 211.203125 5.574219 216.59375 10.984375 216.59375 17.667969 Z M 216.59375 17.667969 "/>
<path style=" stroke:none;fill-rule:nonzero;fill:rgb(18.431373%,18.039216%,25.490196%);fill-opacity:1;" d="M 196.367188 5.339844 C 200.667969 2.710938 206.050781 2.636719 210.421875 5.152344 C 214.785156 7.671875 217.441406 12.371094 217.351562 17.425781 C 211.210938 18.972656 204.757812 20.15625 198.214844 17.796875 L 196.664062 13.996094 L 195.753906 17.796875 C 193.761719 18.617188 191.761719 19.308594 189.761719 17.792969 C 189.597656 12.757812 192.109375 8.015625 196.367188 5.339844 Z M 196.367188 5.339844 "/>
<path style=" stroke:none;fill-rule:nonzero;fill:rgb(42.352941%,38.823529%,100%);fill-opacity:1;" d="M 224.769531 124.890625 L 226.394531 139.6875 C 226.628906 140.441406 227.320312 140.960938 228.117188 140.960938 L 235.601562 140.960938 C 236.390625 140.960938 237.089844 140.441406 237.324219 139.6875 L 238.664062 128.347656 C 239.730469 128.875 241.011719 128.644531 241.835938 127.789062 C 242.660156 126.929688 242.839844 125.632812 242.273438 124.585938 C 241.710938 123.535156 240.539062 122.972656 239.371094 123.1875 C 239.03125 122.789062 238.527344 122.554688 238.003906 122.554688 L 226.488281 122.554688 C 225.917969 122.554688 225.382812 122.828125 225.042969 123.289062 C 224.703125 123.753906 224.601562 124.34375 224.769531 124.890625 Z M 238.902344 127.582031 L 239.722656 124.890625 C 239.816406 124.582031 239.832031 124.253906 239.753906 123.9375 C 239.789062 123.9375 239.816406 123.925781 239.855469 123.925781 C 240.933594 123.925781 241.804688 124.804688 241.804688 125.886719 C 241.804688 126.96875 240.933594 127.84375 239.855469 127.84375 C 239.523438 127.839844 239.191406 127.75 238.902344 127.582031 Z M 238.902344 127.582031 "/>
<path style=" stroke:none;fill-rule:nonzero;fill:rgb(100%,71.372549%,71.372549%);fill-opacity:1;" d="M 236.058594 140.96875 C 235.101562 140.003906 234.621094 138.664062 234.746094 137.308594 C 234.867188 135.953125 235.582031 134.722656 236.699219 133.949219 L 229.398438 97.578125 L 237.457031 100.175781 L 243.296875 135.351562 C 244.5 137.363281 244.007812 139.957031 242.164062 141.390625 C 240.316406 142.824219 237.695312 142.640625 236.058594 140.96875 Z M 236.058594 140.96875 "/>
<path style=" stroke:none;fill-rule:nonzero;fill:rgb(90.196078%,90.196078%,90.196078%);fill-opacity:1;" d="M 221.996094 48.945312 L 226.996094 45.15625 C 226.996094 45.15625 231.410156 44.84375 232.191406 52.824219 C 232.972656 60.808594 237.859375 91.441406 237.859375 91.441406 L 245.511719 127 L 234.917969 129.328125 L 226.726562 90.957031 L 218.527344 64.484375 Z M 221.996094 48.945312 "/>
<path style=" stroke:none;fill-rule:nonzero;fill:rgb(42.352941%,38.823529%,100%);fill-opacity:1;" d="M 181.683594 79.210938 C 181.683594 80.78125 180.414062 82.050781 178.855469 82.050781 C 177.289062 82.050781 176.023438 80.78125 176.023438 79.210938 C 176.023438 77.644531 177.289062 76.371094 178.855469 76.371094 C 180.414062 76.371094 181.683594 77.644531 181.683594 79.210938 Z M 181.683594 79.210938 "/>
<path style=" stroke:none;fill-rule:nonzero;fill:rgb(100%,71.372549%,71.372549%);fill-opacity:1;" d="M 88.613281 272.347656 L 94.511719 272.347656 L 97.3125 249.519531 L 88.609375 249.519531 Z M 88.613281 272.347656 "/>
<path style=" stroke:none;fill-rule:nonzero;fill:rgb(18.431373%,18.039216%,25.490196%);fill-opacity:1;" d="M 87.109375 270.414062 L 88.769531 270.414062 L 95.246094 267.769531 L 98.71875 270.414062 L 98.722656 270.414062 C 102.8125 270.414062 106.121094 273.738281 106.121094 277.84375 L 106.121094 278.082031 L 87.109375 278.082031 Z M 87.109375 270.414062 "/>
<path style=" stroke:none;fill-rule:nonzero;fill:rgb(100%,71.372549%,71.372549%);fill-opacity:1;" d="M 111.46875 268.617188 L 117.214844 269.921875 L 124.964844 248.277344 L 116.472656 246.351562 Z M 111.46875 268.617188 "/>
<path style=" stroke:none;fill-rule:nonzero;fill:rgb(18.431373%,18.039216%,25.490196%);fill-opacity:1;" d="M 110.421875 266.402344 L 112.039062 266.765625 L 118.945312 265.621094 L 121.75 268.96875 C 125.738281 269.871094 128.242188 273.847656 127.339844 277.847656 L 127.289062 278.082031 L 108.738281 273.882812 Z M 110.421875 266.402344 "/>
<path style=" stroke:none;fill-rule:nonzero;fill:rgb(18.431373%,18.039216%,25.490196%);fill-opacity:1;" d="M 77.8125 154.917969 L 83.144531 214.886719 C 83.144531 214.886719 81.148438 250.886719 87.597656 263.550781 L 96.949219 263.550781 L 101.578125 211.597656 L 102.160156 176.726562 L 122.207031 206.144531 L 109.4375 262.703125 L 120.949219 263.734375 L 141.667969 202.359375 L 118.90625 144.738281 Z M 77.8125 154.917969 "/>
<path style=" stroke:none;fill-rule:nonzero;fill:rgb(100%,72.156863%,72.156863%);fill-opacity:1;" d="M 97.152344 45.632812 C 97.152344 53.253906 90.996094 59.429688 83.402344 59.429688 C 75.804688 59.429688 69.648438 53.253906 69.648438 45.632812 C 69.648438 38.007812 75.804688 31.828125 83.402344 31.828125 C 90.996094 31.828125 97.152344 38.007812 97.152344 45.632812 Z M 97.152344 45.632812 "/>
<path style=" stroke:none;fill-rule:nonzero;fill:rgb(24.705882%,23.921569%,33.72549%);fill-opacity:1;" d="M 107.578125 72.585938 L 96.292969 67.726562 L 90.800781 61.882812 L 77.078125 64.101562 L 73.4375 70.363281 L 61.65625 81.363281 L 75.460938 144.015625 L 75.042969 157.703125 C 75.042969 157.703125 83.882812 161.695312 122.207031 152.5 C 122.667969 152.390625 121.707031 151.910156 121.707031 151.910156 Z M 107.578125 72.585938 "/>
<path style=" stroke:none;fill-rule:nonzero;fill:rgb(18.431373%,18.039216%,25.490196%);fill-opacity:1;" d="M 69.097656 53.460938 C 69.003906 53.328125 68.910156 53.199219 68.8125 53.0625 C 68.773438 53.144531 68.746094 53.226562 68.699219 53.304688 Z M 69.097656 53.460938 "/>
<path style=" stroke:none;fill-rule:nonzero;fill:rgb(18.431373%,18.039216%,25.490196%);fill-opacity:1;" d="M 97.078125 35.53125 C 96.164062 33.523438 94.523438 31.933594 92.488281 31.078125 C 90.476562 30.265625 88.222656 30.265625 86.210938 31.089844 C 84.390625 29.933594 82.371094 29.019531 80.242188 28.90625 C 78.113281 28.792969 75.863281 29.585938 74.554688 31.328125 C 74.257812 31.789062 73.925781 32.222656 73.5625 32.625 C 72.507812 33.601562 70.90625 33.464844 69.503906 33.265625 C 70.128906 33.804688 70.761719 34.339844 71.386719 34.882812 C 70.628906 35.085938 69.867188 35.285156 69.105469 35.484375 C 69.992188 36.023438 70.882812 36.5625 71.769531 37.105469 C 69.191406 38.65625 68.019531 42.042969 68.328125 45.117188 C 68.621094 48.03125 70.023438 50.695312 71.699219 53.0625 C 72.367188 51.648438 72.222656 49.953125 72.210938 48.363281 C 72.203125 46.679688 72.496094 44.765625 73.84375 43.824219 C 74.75 43.1875 75.917969 43.160156 77.011719 43.167969 C 82.53125 43.195312 88.039062 43.542969 93.515625 44.203125 C 94.261719 44.230469 94.988281 44.441406 95.628906 44.816406 C 96.84375 45.644531 97.078125 47.355469 97.199219 48.859375 C 97.84375 46.378906 98.15625 43.824219 98.132812 41.265625 C 98.183594 39.300781 97.828125 37.347656 97.078125 35.53125 Z M 97.078125 35.53125 "/>
<path style=" stroke:none;fill-rule:nonzero;fill:rgb(100%,100%,100%);fill-opacity:1;" d="M 123.007812 175.230469 C 123.007812 187.230469 113.316406 196.953125 101.363281 196.953125 C 89.40625 196.953125 79.71875 187.230469 79.71875 175.230469 C 79.71875 163.234375 89.40625 153.507812 101.363281 153.507812 C 113.316406 153.507812 123.007812 163.234375 123.007812 175.230469 Z M 123.007812 175.230469 "/>
<path style=" stroke:none;fill-rule:nonzero;fill:rgb(24.705882%,23.921569%,33.72549%);fill-opacity:1;" d="M 101.363281 153.027344 C 100.25 153.027344 99.140625 153.109375 98.039062 153.277344 C 97.472656 153.359375 96.925781 153.464844 96.382812 153.59375 C 88.238281 155.480469 81.847656 161.808594 79.867188 169.957031 C 77.882812 178.105469 80.648438 186.679688 87.007812 192.121094 C 87.375 192.433594 87.753906 192.738281 88.144531 193.027344 C 95.855469 198.796875 106.394531 198.90625 114.226562 193.296875 C 122.050781 187.683594 125.371094 177.640625 122.4375 168.449219 C 119.5 159.253906 110.980469 153.023438 101.363281 153.027344 Z M 101.363281 196.472656 C 96.863281 196.476562 92.480469 195.035156 88.855469 192.355469 C 88.460938 192.066406 88.078125 191.769531 87.710938 191.445312 C 81.511719 186.195312 78.847656 177.851562 80.855469 169.960938 C 82.867188 162.070312 89.199219 156.03125 97.148438 154.414062 C 97.6875 154.304688 98.222656 154.214844 98.773438 154.152344 C 99.632812 154.042969 100.496094 153.992188 101.363281 153.992188 C 113.050781 153.992188 122.527344 163.5 122.527344 175.230469 C 122.527344 186.964844 113.050781 196.472656 101.363281 196.472656 Z M 101.363281 196.472656 "/>
<path style=" stroke:none;fill-rule:nonzero;fill:rgb(42.352941%,38.823529%,100%);fill-opacity:1;" d="M 111.980469 170.886719 L 90.742188 170.886719 C 89.96875 170.886719 89.335938 170.253906 89.335938 169.476562 L 89.335938 169.40625 C 89.335938 168.625 89.96875 167.988281 90.742188 167.988281 L 111.980469 167.988281 C 112.757812 167.988281 113.390625 168.625 113.390625 169.40625 L 113.390625 169.476562 C 113.390625 170.253906 112.757812 170.886719 111.980469 170.886719 Z M 111.980469 170.886719 "/>
<path style=" stroke:none;fill-rule:nonzero;fill:rgb(42.352941%,38.823529%,100%);fill-opacity:1;" d="M 111.980469 176.675781 L 90.742188 176.675781 C 89.96875 176.675781 89.335938 176.046875 89.335938 175.265625 L 89.335938 175.195312 C 89.335938 174.417969 89.96875 173.785156 90.742188 173.785156 L 111.980469 173.785156 C 112.757812 173.785156 113.390625 174.417969 113.390625 175.195312 L 113.390625 175.265625 C 113.390625 176.046875 112.757812 176.675781 111.980469 176.675781 Z M 111.980469 176.675781 "/>
<path style=" stroke:none;fill-rule:nonzero;fill:rgb(42.352941%,38.823529%,100%);fill-opacity:1;" d="M 111.980469 182.472656 L 90.742188 182.472656 C 89.96875 182.472656 89.335938 181.84375 89.335938 181.058594 L 89.335938 180.992188 C 89.335938 180.210938 89.96875 179.574219 90.742188 179.574219 L 111.980469 179.574219 C 112.757812 179.574219 113.390625 180.210938 113.390625 180.992188 L 113.390625 181.058594 C 113.390625 181.84375 112.757812 182.472656 111.980469 182.472656 Z M 111.980469 182.472656 "/>
<path style=" stroke:none;fill-rule:nonzero;fill:rgb(61.960784%,38.039216%,41.568627%);fill-opacity:1;" d="M 343.546875 271.609375 L 337.359375 271.609375 L 334.421875 247.675781 L 343.546875 247.675781 Z M 343.546875 271.609375 "/>
<path style=" stroke:none;fill-rule:nonzero;fill:rgb(61.960784%,38.039216%,41.568627%);fill-opacity:1;" d="M 314.292969 271.609375 L 308.105469 271.609375 L 305.164062 247.675781 L 314.292969 247.675781 Z M 314.292969 271.609375 "/>
<path style=" stroke:none;fill-rule:nonzero;fill:rgb(18.431373%,18.039216%,25.490196%);fill-opacity:1;" d="M 314.507812 278.082031 L 295.492188 278.082031 L 295.492188 277.84375 C 295.492188 273.738281 298.808594 270.414062 302.894531 270.414062 L 306.371094 267.769531 L 312.847656 270.414062 L 314.511719 270.414062 Z M 314.507812 278.082031 "/>
<path style=" stroke:none;fill-rule:nonzero;fill:rgb(18.431373%,18.039216%,25.490196%);fill-opacity:1;" d="M 344.558594 278.082031 L 325.542969 278.082031 L 325.542969 277.84375 C 325.546875 273.738281 328.855469 270.414062 332.945312 270.414062 L 336.417969 267.769531 L 342.898438 270.414062 L 344.558594 270.414062 Z M 344.558594 278.082031 "/>
<path style=" stroke:none;fill-rule:nonzero;fill:rgb(18.431373%,18.039216%,25.490196%);fill-opacity:1;" d="M 308.222656 129.941406 L 298.828125 187.371094 L 301.386719 195.929688 L 298.027344 201.992188 L 302.957031 255.222656 L 300.957031 259.644531 L 306.542969 263.101562 L 317.921875 263.101562 L 318.523438 214.910156 L 321.335938 207.835938 L 321.335938 203.9375 L 327.054688 174.554688 L 328.105469 215.707031 L 329.773438 222.789062 L 328.375 227.839844 L 330.203125 231.375 L 335.050781 264.152344 L 347.804688 264.152344 L 346.820312 256.527344 C 349.101562 255.363281 350.316406 252.800781 349.765625 250.285156 L 349.039062 246.945312 L 350.699219 237.066406 L 353.734375 181.925781 L 352.878906 137.433594 L 337.957031 125.980469 Z M 308.222656 129.941406 "/>
<path style=" stroke:none;fill-rule:nonzero;fill:rgb(61.960784%,38.039216%,41.568627%);fill-opacity:1;" d="M 341.621094 44.304688 C 341.621094 50.875 336.316406 56.195312 329.773438 56.195312 C 323.222656 56.195312 317.921875 50.875 317.921875 44.304688 C 317.921875 37.734375 323.222656 32.414062 329.773438 32.414062 C 336.316406 32.414062 341.621094 37.734375 341.621094 44.304688 Z M 341.621094 44.304688 "/>
<path style=" stroke:none;fill-rule:nonzero;fill:rgb(61.960784%,38.039216%,41.568627%);fill-opacity:1;" d="M 303.878906 152.734375 C 304.925781 151.652344 305.4375 150.160156 305.28125 148.660156 C 305.125 147.160156 304.3125 145.8125 303.070312 144.972656 L 307.675781 127.480469 L 298.800781 130.476562 L 295.785156 146.628906 C 294.488281 148.867188 295.0625 151.730469 297.128906 153.285156 C 299.195312 154.847656 302.09375 154.605469 303.878906 152.734375 Z M 303.878906 152.734375 "/>
<path style=" stroke:none;fill-rule:nonzero;fill:rgb(90.196078%,90.196078%,90.196078%);fill-opacity:1;" d="M 308.730469 68.769531 L 306.824219 68.371094 L 305.199219 69.277344 C 305.199219 69.277344 300.660156 75.351562 300.660156 80.917969 C 300.660156 86.488281 295.109375 140.148438 295.109375 140.148438 L 305.199219 144.699219 L 313.269531 102.6875 Z M 308.730469 68.769531 "/>
<path style=" stroke:none;fill-rule:nonzero;fill:rgb(18.431373%,18.039216%,25.490196%);fill-opacity:1;" d="M 340.152344 35.585938 C 340.152344 35.585938 343.25 29.636719 336.433594 29.097656 C 336.433594 29.097656 330.617188 23.808594 324.691406 28.128906 C 324.691406 28.128906 321.460938 28.128906 319.691406 31.800781 C 319.691406 31.800781 317.148438 30.832031 316.589844 33.421875 C 316.589844 33.421875 314.734375 38.828125 316.589844 43.695312 C 318.453125 48.558594 319.066406 49.097656 319.066406 49.097656 C 319.066406 49.097656 316.011719 38.898438 323.453125 38.359375 C 330.890625 37.816406 339.21875 33.152344 339.835938 39.097656 C 340.453125 45.042969 341.390625 46.507812 341.390625 46.507812 C 341.390625 46.507812 347.28125 38.015625 340.152344 35.585938 Z M 340.152344 35.585938 "/>
<path style=" stroke:none;fill-rule:nonzero;fill:rgb(100%,100%,100%);fill-opacity:1;" d="M 383.4375 201.992188 C 382.542969 201.992188 381.675781 201.664062 381.011719 201.0625 L 345.148438 169.027344 C 343.644531 167.683594 343.515625 165.367188 344.851562 163.851562 L 367.820312 137.953125 C 369.167969 136.441406 371.476562 136.308594 372.980469 137.652344 L 408.84375 169.6875 C 410.351562 171.035156 410.484375 173.351562 409.144531 174.863281 L 386.171875 200.765625 C 385.53125 201.492188 384.621094 201.933594 383.65625 201.984375 C 383.582031 201.988281 383.507812 201.992188 383.4375 201.992188 Z M 383.4375 201.992188 "/>
<path style=" stroke:none;fill-rule:nonzero;fill:rgb(24.705882%,23.921569%,33.72549%);fill-opacity:1;" d="M 383.433594 202.226562 C 382.484375 202.230469 381.5625 201.875 380.855469 201.242188 L 344.992188 169.203125 C 343.390625 167.769531 343.25 165.304688 344.675781 163.695312 L 367.648438 137.792969 C 369.078125 136.191406 371.535156 136.046875 373.136719 137.476562 L 409 169.511719 C 410.605469 170.945312 410.75 173.410156 409.320312 175.019531 L 386.34375 200.921875 C 385.664062 201.691406 384.695312 202.164062 383.667969 202.222656 C 383.589844 202.226562 383.511719 202.226562 383.433594 202.226562 Z M 370.554688 137.433594 C 369.714844 137.425781 368.910156 137.789062 368.351562 138.421875 L 345.375 164.320312 C 344.296875 165.542969 344.402344 167.414062 345.617188 168.5 L 381.480469 200.539062 C 382.695312 201.625 384.5625 201.515625 385.640625 200.292969 L 408.617188 174.394531 C 409.699219 173.171875 409.59375 171.304688 408.375 170.214844 L 372.511719 138.179688 C 371.972656 137.695312 371.277344 137.433594 370.554688 137.433594 Z M 370.554688 137.433594 "/>
<path style=" stroke:none;fill-rule:nonzero;fill:rgb(42.352941%,38.823529%,100%);fill-opacity:1;" d="M 396.441406 177.464844 C 396.050781 177.464844 395.679688 177.320312 395.390625 177.0625 L 367.238281 151.914062 C 366.816406 151.539062 366.625 150.960938 366.738281 150.40625 C 366.855469 149.851562 367.253906 149.398438 367.792969 149.222656 C 368.328125 149.042969 368.917969 149.164062 369.339844 149.546875 L 397.492188 174.691406 C 397.984375 175.132812 398.152344 175.828125 397.917969 176.441406 C 397.683594 177.054688 397.097656 177.464844 396.441406 177.464844 Z M 396.441406 177.464844 "/>
<path style=" stroke:none;fill-rule:nonzero;fill:rgb(42.352941%,38.823529%,100%);fill-opacity:1;" d="M 391.070312 183.519531 C 390.683594 183.519531 390.3125 183.375 390.019531 183.113281 L 361.871094 157.96875 C 361.21875 157.386719 361.160156 156.382812 361.742188 155.726562 C 362.324219 155.078125 363.320312 155.015625 363.972656 155.597656 L 392.125 180.746094 C 392.613281 181.1875 392.785156 181.882812 392.550781 182.492188 C 392.316406 183.109375 391.726562 183.519531 391.070312 183.519531 Z M 391.070312 183.519531 "/>
<path style=" stroke:none;fill-rule:nonzero;fill:rgb(42.352941%,38.823529%,100%);fill-opacity:1;" d="M 385.703125 189.570312 C 385.3125 189.574219 384.9375 189.425781 384.652344 189.171875 L 356.5 164.019531 C 356.078125 163.644531 355.890625 163.074219 356 162.511719 C 356.117188 161.960938 356.519531 161.507812 357.050781 161.332031 C 357.589844 161.152344 358.179688 161.273438 358.605469 161.652344 L 386.753906 186.796875 C 387.242188 187.238281 387.414062 187.9375 387.183594 188.550781 C 386.949219 189.164062 386.359375 189.574219 385.703125 189.570312 Z M 385.703125 189.570312 "/>
<path style=" stroke:none;fill-rule:nonzero;fill:rgb(61.960784%,38.039216%,41.568627%);fill-opacity:1;" d="M 353.511719 153.765625 C 352.777344 152.449219 352.664062 150.875 353.203125 149.46875 C 353.738281 148.0625 354.863281 146.964844 356.285156 146.476562 L 356.3125 128.382812 L 364.125 133.570312 L 362.898438 149.953125 C 363.578125 152.457031 362.289062 155.078125 359.890625 156.042969 C 357.496094 157.019531 354.753906 156.039062 353.511719 153.765625 Z M 353.511719 153.765625 "/>
<path style=" stroke:none;fill-rule:nonzero;fill:rgb(90.196078%,90.196078%,90.196078%);fill-opacity:1;" d="M 354.230469 73.726562 L 357.71875 70.351562 L 360.285156 72.210938 C 360.285156 72.210938 362.804688 75.246094 364.824219 84.359375 C 366.839844 93.46875 364.824219 143.582031 364.824219 143.582031 L 353.726562 142.0625 L 355.242188 115.738281 L 350.699219 93.46875 Z M 354.230469 73.726562 "/>
<path style=" stroke:none;fill-rule:nonzero;fill:rgb(24.705882%,23.921569%,33.72549%);fill-opacity:1;" d="M 359.382812 71.171875 L 347.628906 65.539062 L 339.644531 58.109375 L 325.089844 58.003906 L 320.394531 64.125 L 308.003906 68.351562 L 310.066406 111.242188 L 308.65625 114.542969 C 308.65625 114.542969 309.636719 115.433594 310.089844 115.929688 C 310.535156 116.429688 309.46875 120.589844 309.46875 120.589844 L 308.867188 125.125 L 310.535156 126.320312 L 308.367188 128.894531 L 307.824219 132.953125 C 307.824219 132.953125 345.722656 123.5 352.882812 139.160156 C 353.265625 139.984375 352.332031 131.898438 352.332031 131.898438 L 351.398438 125.980469 L 352.324219 120.667969 L 353.734375 119.253906 L 351.367188 116.886719 L 352.882812 105.636719 Z M 359.382812 71.171875 "/>
<path style=" stroke:none;fill-rule:nonzero;fill:rgb(100%,72.156863%,72.156863%);fill-opacity:1;" d="M 92.773438 166.265625 C 93.363281 164.761719 93.261719 163.070312 92.488281 161.648438 C 91.71875 160.226562 90.363281 159.222656 88.777344 158.902344 L 86.171875 139.660156 L 78.597656 146.300781 L 82.238281 163.558594 C 81.871094 166.316406 83.617188 168.917969 86.308594 169.609375 C 88.996094 170.296875 91.773438 168.863281 92.773438 166.265625 Z M 92.773438 166.265625 "/>
<path style=" stroke:none;fill-rule:nonzero;fill:rgb(24.705882%,23.921569%,33.72549%);fill-opacity:1;" d="M 63.109375 81.011719 L 61.054688 81.402344 L 59.816406 82.972656 C 59.816406 82.972656 57.804688 90.871094 60.09375 96.390625 C 62.378906 101.914062 78.910156 157.414062 78.910156 157.414062 L 90.78125 157.757812 L 81.53125 112.757812 Z M 63.109375 81.011719 "/>
<path style=" stroke:none;fill-rule:nonzero;fill:rgb(100%,72.156863%,72.156863%);fill-opacity:1;" d="M 109.914062 163.441406 C 108.808594 162.265625 108.273438 160.664062 108.464844 159.050781 C 108.652344 157.449219 109.535156 156.003906 110.882812 155.121094 L 106.15625 136.285156 L 115.648438 139.617188 L 118.683594 156.992188 C 120.050781 159.414062 119.394531 162.476562 117.15625 164.125 C 114.917969 165.769531 111.804688 165.480469 109.914062 163.441406 Z M 109.914062 163.441406 "/>
<path style=" stroke:none;fill-rule:nonzero;fill:rgb(24.705882%,23.921569%,33.72549%);fill-opacity:1;" d="M 105.765625 73.234375 L 107.816406 72.832031 L 109.550781 73.820312 C 109.550781 73.820312 114.347656 80.402344 114.273438 86.378906 C 114.207031 92.355469 119.484375 150.039062 119.484375 150.039062 L 108.597656 154.800781 L 100.464844 109.59375 Z M 105.765625 73.234375 "/>
</g>
</svg>
